<svg xmlns="http://www.w3.org/2000/svg" viewBox="53 52 807 175" width="807" height="175"><title>Set Up &amp; Seen Logo_Full_Colour</title>
<path d="M0 0 C0.049 -0.289 0.098 -0.578 0.148 -0.875 C0.223 -1.246 0.298 -1.618 0.375 -2 C0.41 -2.186 0.41 -2.186 0.586 -3.125 C0.723 -3.414 0.859 -3.703 1 -4 C1.66 -4 2.32 -4 3 -4 C3 3.92 3 11.84 3 20 C2.01 20 1.02 20 0 20 C-0.613 18.918 -0.613 18.918 -0.957 17.402 C-1.097 16.851 -1.236 16.3 -1.38 15.732 C-1.523 15.14 -1.666 14.548 -1.812 13.938 C-3.567 7.551 -5.654 2.705 -11.438 -0.895 C-15.496 -2.604 -19.879 -2.278 -24 -1 C-26.381 0.28 -27.769 1.584 -29 4 C-29.364 5.507 -29.474 6.953 -29.5 8.5 C-29.506 8.867 -29.513 9.235 -29.52 9.613 C-29.367 12.94 -28.184 15.503 -26 18 C-23.46 20.225 -20.611 22.06 -17.812 23.938 C-16.338 24.943 -14.866 25.954 -13.395 26.965 C-13.031 27.214 -12.667 27.462 -12.293 27.719 C-9.716 29.488 -7.172 31.297 -4.66 33.156 C-4.341 33.389 -4.022 33.622 -3.693 33.862 C0.794 37.22 6.044 42.264 7 48 C7.85 54.777 7.081 60.411 3 66 C-1.001 71.009 -8.595 73.357 -14.729 74.252 C-25.044 75.249 -33.566 72.802 -43 69 C-43.049 69.289 -43.098 69.577 -43.148 69.875 C-43.223 70.246 -43.298 70.618 -43.375 71 C-43.41 71.186 -43.41 71.186 -43.586 72.125 C-43.723 72.414 -43.859 72.702 -44 73 C-44.66 73 -45.32 73 -46 73 C-46 63.43 -46 53.86 -46 44 C-45.01 44 -44.02 44 -43 44 C-42.448 45.174 -42.448 45.174 -42.191 46.816 C-42.139 47.115 -42.139 47.115 -41.872 48.624 C-41.77 49.264 -41.668 49.903 -41.562 50.562 C-40.649 55.566 -39.657 59.569 -36.77 63.766 C-36 65 -36 65 -36 67 C-35.012 67.598 -35.012 67.598 -33.688 68.062 C-33.258 68.218 -32.829 68.374 -32.387 68.535 C-32.158 68.612 -32.158 68.612 -31 69 C-30.539 69.179 -30.077 69.358 -29.602 69.543 C-25.126 70.82 -19.802 70.671 -15.562 68.75 C-13.585 67.561 -12.059 66.498 -11.25 64.289 C-10.34 59.598 -10.258 54.963 -12.746 50.716 C-16.791 44.917 -23.978 41.005 -29.762 37.152 C-36.24 32.817 -43.833 27.533 -45.789 19.492 C-46.579 13.902 -46.341 8.78 -43 4 C-31.767 -9.496 -14.256 -6.156 0 0 Z " fill="#000000" transform="translate(108,86)"/>
<path d="M0 0 C0 -1.32 0 -2.64 0 -4 C0.99 -4 1.98 -4 3 -4 C3 3.92 3 11.84 3 20 C2.01 20 1.02 20 0 20 C-0.628 18.902 -0.628 18.902 -0.992 17.367 C-1.137 16.811 -1.282 16.254 -1.431 15.681 C-1.577 15.085 -1.724 14.489 -1.875 13.875 C-3.578 7.767 -5.111 3.564 -10.594 -0.051 C-15.182 -2.418 -19.171 -2.435 -24 -1 C-26.368 -0.096 -27.738 0.773 -29 3 C-29.405 4.628 -29.52 6.201 -29.562 7.875 C-29.57 8.08 -29.57 8.08 -29.607 9.119 C-29.478 13.052 -27.753 16.234 -25 19 C-22.526 21.075 -19.803 22.809 -17.09 24.552 C-14.933 25.941 -12.805 27.373 -10.676 28.805 C-10.263 29.082 -9.849 29.36 -9.423 29.645 C-6.291 31.764 -3.325 33.979 -0.5 36.5 C-0.17 36.789 0.16 37.078 0.501 37.376 C4.761 41.339 6.887 46.027 7.217 51.777 C7.399 57.533 5.721 62.357 1.812 66.688 C-5.685 73.572 -15.036 74.736 -24.838 74.324 C-31.137 73.896 -37.2 71.337 -43 69 C-43.33 70.32 -43.66 71.64 -44 73 C-45.495 72.889 -45.495 72.889 -47 72 C-47.404 69.93 -47.203 67.872 -47.074 65.777 C-47.048 65.157 -47.021 64.537 -46.994 63.898 C-46.921 62.248 -46.835 60.6 -46.742 58.952 C-46.651 57.27 -46.577 55.587 -46.502 53.904 C-46.35 50.602 -46.182 47.301 -46 44 C-45.01 44 -44.02 44 -43 44 C-42.966 44.311 -42.931 44.622 -42.896 44.943 C-41.97 52.761 -40.693 61.949 -34.469 67.508 C-29.144 71.1 -23.2 70.552 -17.098 69.75 C-14.892 69.232 -13.514 68.705 -12.16 66.848 C-10.103 61.995 -10.83 56.175 -12.613 51.336 C-15.314 46.549 -20.149 43.842 -24.631 40.904 C-28.132 38.591 -31.546 36.151 -34.965 33.72 C-35.814 33.129 -36.686 32.572 -37.562 32.023 C-42.169 28.943 -45.054 23.101 -46.279 17.79 C-47.084 12.417 -45.766 7.326 -42.693 2.868 C-32.284 -10.166 -13.039 -5.63 0 0 Z " fill="#000000" transform="translate(627,86)"/>
<path d="M0 0 C19.47 0 38.94 0 59 0 C58.67 7.59 58.34 15.18 58 23 C57.34 23 56.68 23 56 23 C55.438 21.978 55.438 21.978 55 20.551 C54.918 20.291 54.918 20.291 54.5 18.979 C54.418 18.704 54.418 18.704 54 17.312 C53.344 15.205 52.676 13.101 52 11 C51.857 10.523 51.715 10.045 51.568 9.553 C50.848 7.403 50.319 5.9 48.223 4.855 C47.511 4.607 46.79 4.386 46.062 4.188 C45.675 4.071 45.287 3.954 44.888 3.833 C41.657 2.962 38.462 2.722 35.125 2.688 C34.661 2.682 34.197 2.676 33.719 2.671 C30.85 2.732 29.3 3.129 27 5 C26.601 6.455 26.601 6.455 26.568 8.165 C26.548 8.805 26.528 9.446 26.508 10.105 C26.501 10.802 26.494 11.499 26.488 12.195 C26.471 12.91 26.453 13.625 26.434 14.339 C26.386 16.216 26.357 18.094 26.33 19.971 C26.301 21.889 26.254 23.806 26.209 25.723 C26.123 29.482 26.056 33.241 26 37 C27.452 36.707 28.902 36.407 30.352 36.102 C30.761 36.02 31.17 35.938 31.592 35.854 C34.365 35.262 36.355 34.584 38.238 32.352 C39.428 30.241 40.218 27.972 40.875 25.642 C41.191 24.609 41.191 24.609 42 23 C42.99 23 43.98 23 45 23 C45 33.23 45 43.46 45 54 C44.34 54 43.68 54 43 54 C42.469 53.13 42.469 53.13 42.07 51.918 C41.914 51.48 41.758 51.043 41.598 50.592 C41.287 49.668 40.979 48.744 40.676 47.818 C39.727 45.175 38.783 43.21 36.414 41.618 C33.128 40.181 29.511 39.638 26 39 C26.061 43.121 26.138 47.241 26.236 51.361 C26.28 53.275 26.32 55.188 26.346 57.102 C26.373 58.95 26.413 60.798 26.463 62.646 C26.48 63.349 26.491 64.053 26.498 64.757 C26.558 70.958 26.558 70.958 28.365 72.931 C29.995 73.997 30.758 74.384 32.672 74.398 C33.168 74.405 33.664 74.411 34.176 74.417 C34.695 74.403 35.215 74.389 35.75 74.375 C36.017 74.37 36.017 74.37 37.371 74.346 C42.759 74.142 47.337 73.057 51.188 69 C54.416 64.449 56.456 58.13 57.426 52.66 C57.521 52.386 57.521 52.386 58 51 C58.99 51 59.98 51 61 51 C61 59.58 61 68.16 61 77 C40.87 77 20.74 77 0 77 C0 76.34 0 75.68 0 75 C1.773 74.458 3.545 74.169 5.371 73.855 C7 73 7 73 7.373 72.03 C7.978 68.697 8.142 65.479 8.129 62.096 C8.131 61.528 8.133 60.959 8.135 60.374 C8.139 58.51 8.136 56.646 8.133 54.781 C8.133 53.478 8.134 52.174 8.136 50.87 C8.138 48.143 8.135 45.417 8.13 42.69 C8.125 39.549 8.127 36.409 8.132 33.268 C8.137 30.231 8.137 27.195 8.134 24.158 C8.133 22.873 8.134 21.588 8.136 20.302 C8.139 18.503 8.135 16.704 8.129 14.904 C8.131 14.378 8.133 13.853 8.136 13.311 C8.099 6.855 8.099 6.855 7 4 C5.371 3.145 5.371 3.145 3.438 2.812 C1.496 2.457 1.496 2.457 0 2 C0 1.34 0 0.68 0 0 Z " fill="#000000" transform="translate(123,82)"/>
<path d="M0 0 C22.11 0 44.22 0 67 0 C67 8.58 67 17.16 67 26 C66.505 26.165 66.505 26.165 64 27 C63.905 26.648 63.81 26.296 63.712 25.934 C58.833 8.188 58.833 8.188 53.336 4.887 C50.562 3.598 47.884 2.962 44.879 2.47 C44.339 2.382 43.8 2.293 43.244 2.202 C43.039 2.169 43.039 2.169 42 2 C42.084 10.667 42.179 19.333 42.288 28 C42.338 32.024 42.384 36.048 42.422 40.073 C42.455 43.581 42.495 47.09 42.543 50.598 C42.568 52.455 42.59 54.312 42.603 56.169 C42.619 58.245 42.649 60.32 42.681 62.396 C42.683 63.008 42.685 63.62 42.688 64.25 C42.756 67.713 43.111 70.064 45 73 C46.053 73.606 46.053 73.606 47.164 73.758 C47.564 73.826 47.963 73.894 48.375 73.965 C48.787 74.018 49.2 74.071 49.625 74.125 C51.132 74.342 52.519 74.616 54 75 C54 75.66 54 76.32 54 77 C40.47 77 26.94 77 13 77 C13 76.34 13 75.68 13 75 C14.878 74.548 16.707 74.26 18.625 74.053 C19.903 73.845 20.845 73.589 22 73 C24.342 69.532 24.304 65.401 24.319 61.374 C24.329 60.729 24.339 60.085 24.349 59.421 C24.376 57.669 24.392 55.918 24.405 54.166 C24.42 52.329 24.447 50.493 24.473 48.656 C24.519 45.186 24.556 41.715 24.589 38.245 C24.628 34.29 24.677 30.336 24.727 26.382 C24.83 18.255 24.92 10.128 25 2 C23.567 2.299 22.135 2.603 20.703 2.91 C20.301 2.994 19.899 3.077 19.485 3.163 C15.833 3.953 12.403 4.954 10 8 C7.448 12.203 5.75 16.884 4.094 21.496 C3.959 21.869 3.825 22.242 3.686 22.626 C3.443 23.318 3.209 24.014 2.988 24.714 C2.676 25.637 2.676 25.637 2 27 C1.34 27 0.68 27 0 27 C0 18.09 0 9.18 0 0 Z " fill="#000000" transform="translate(192,82)"/>
<path d="M0 0 C11.55 0 23.1 0 35 0 C35 0.66 35 1.32 35 2 C34.071 2.227 33.14 2.446 32.199 2.616 C30.204 3.039 28.51 3.587 27 5 C25.397 8.717 26.003 13.312 26.113 17.262 C26.121 18.494 26.125 19.726 26.126 20.958 C26.137 23.544 26.174 26.127 26.232 28.713 C26.305 32.007 26.331 35.299 26.339 38.594 C26.348 41.141 26.373 43.688 26.404 46.236 C26.418 47.449 26.43 48.662 26.438 49.875 C26.587 65.579 26.587 65.579 31.516 70.669 C34.844 73.653 39.108 73.405 43.363 73.27 C47.676 72.951 51.759 71.519 54.695 68.219 C61.647 58.715 60.297 44.057 60.196 32.881 C60.185 31.366 60.185 29.85 60.186 28.334 C60.185 26.845 60.18 25.355 60.173 23.866 C60.17 23.169 60.168 22.472 60.167 21.776 C60.137 8.819 60.137 8.819 58 4 C56.574 3.491 55.408 3.179 53.938 2.938 C52.566 2.701 51.339 2.412 50 2 C50 1.34 50 0.68 50 0 C56.93 0 63.86 0 71 0 C70 3 70 3 68.844 3.809 C67.949 4.227 67.053 4.644 66.156 5.059 C64.514 6.396 64.339 7.995 64 10 C63.866 11.508 63.846 13.005 63.842 14.518 C63.837 14.951 63.832 15.384 63.827 15.831 C63.816 16.766 63.808 17.701 63.801 18.636 C63.789 20.126 63.769 21.616 63.748 23.107 C63.686 27.342 63.632 31.577 63.599 35.812 C63.577 38.41 63.542 41.008 63.498 43.607 C63.484 44.586 63.475 45.566 63.472 46.546 C63.44 55.384 62.298 65.234 56 72 C48.772 78.345 39.961 78.789 30.76 78.2 C24.696 77.512 18.013 75.259 13.988 70.473 C12.829 68.746 11.74 67.017 10.75 65.188 C10.586 64.893 10.423 64.598 10.254 64.294 C7.223 58.074 7.881 50.093 7.923 43.356 C7.935 40.698 7.914 38.039 7.898 35.381 C7.88 32.018 7.872 28.657 7.9 25.295 C7.923 22.555 7.912 19.817 7.877 17.078 C7.871 16.039 7.876 15.001 7.895 13.962 C8.006 7.3 8.006 7.3 7 5 C5.438 3.494 3.567 2.971 1.501 2.482 C1.006 2.323 0.51 2.164 0 2 C0 1.34 0 0.68 0 0 Z " fill="#000000" transform="translate(287,82)"/>
<path d="M0 0 C5.303 -0.07 10.607 -0.123 15.91 -0.155 C18.374 -0.171 20.838 -0.192 23.301 -0.226 C25.687 -0.259 28.073 -0.277 30.46 -0.285 C31.361 -0.29 32.263 -0.301 33.164 -0.317 C41.972 -0.471 51.176 0.97 58 7 C62.168 11.21 64.175 15.42 64.312 21.312 C64.263 27.048 62.762 32.404 58.812 36.688 C48.803 45.558 38.976 46.356 26 46 C26.118 49.524 26.242 53.048 26.372 56.571 C26.416 57.77 26.457 58.969 26.497 60.168 C26.555 61.891 26.619 63.613 26.684 65.336 C26.7 65.872 26.717 66.409 26.734 66.962 C26.754 67.462 26.774 67.962 26.795 68.478 C26.81 68.918 26.826 69.357 26.842 69.81 C27.011 71.082 27.318 71.918 28 73 C28.94 73.379 28.94 73.379 30.066 73.562 C30.469 73.637 30.872 73.712 31.287 73.789 C32.141 73.93 32.995 74.071 33.85 74.211 C34.251 74.286 34.653 74.36 35.066 74.438 C35.437 74.498 35.808 74.559 36.19 74.621 C36.457 74.746 36.724 74.871 37 75 C37 75.66 37 76.32 37 77 C24.79 77 12.58 77 0 77 C0 76.34 0 75.68 0 75 C1.143 74.748 2.292 74.52 3.442 74.303 C4.956 73.806 5.976 73.236 7 72 C8.419 67.681 7.997 62.772 7.94 58.265 C7.923 56.405 7.939 54.545 7.95 52.684 C7.963 49.56 7.946 46.437 7.913 43.313 C7.874 39.704 7.887 36.099 7.925 32.49 C7.957 29.388 7.962 26.287 7.943 23.185 C7.932 21.334 7.931 19.485 7.954 17.634 C8.077 6.301 8.077 6.301 6.269 4.117 C4.704 3.013 3.392 2.688 1.499 2.33 C1.004 2.221 0.51 2.112 0 2 C0 1.34 0 0.68 0 0 Z M27 3 C25.724 4.783 25.865 6.704 25.886 8.807 C25.886 9.188 25.886 9.568 25.886 9.961 C25.887 11.216 25.895 12.471 25.902 13.727 C25.904 14.598 25.906 15.47 25.907 16.341 C25.91 18.633 25.92 20.925 25.931 23.216 C25.942 25.556 25.946 27.895 25.951 30.234 C25.962 34.823 25.979 39.411 26 44 C27.266 44.032 28.531 44.056 29.797 44.074 C30.151 44.084 30.506 44.094 30.871 44.104 C35.022 44.15 38.066 42.68 41.188 39.969 C46.225 34.486 46.428 26.734 46.184 19.676 C45.849 13.826 44.664 8.558 40.629 4.125 C36.97 1.598 31.045 1.026 27 3 Z " fill="#000000" transform="translate(364,82)"/>
<path d="M0 0 C19.47 0 38.94 0 59 0 C58.67 7.59 58.34 15.18 58 23 C57.01 22.67 56.02 22.34 55 22 C54.387 20.772 54.387 20.772 54.043 19.234 C53.903 18.676 53.763 18.117 53.619 17.542 C53.477 16.951 53.334 16.359 53.188 15.75 C51.856 10.863 50.732 7.68 46.562 4.734 C40.181 1.735 34.345 3 27 3 C26.67 14.22 26.34 25.44 26 37 C36.087 34.758 36.087 34.758 38.238 31.508 C39.409 29.19 40.349 26.811 41.191 24.355 C41.458 23.908 41.725 23.461 42 23 C42.99 23 43.98 23 45 23 C45 33.23 45 43.46 45 54 C42 53 42 53 41.387 52.016 C41.274 51.621 41.16 51.227 41.043 50.82 C40.903 50.387 40.764 49.954 40.62 49.508 C40.548 49.279 40.548 49.279 40.188 48.125 C38.188 42.513 38.188 42.513 35.125 40.938 C32.164 39.779 29.188 39.531 26 39 C26.33 50.55 26.66 62.1 27 74 C45.727 74 45.727 74 51.223 68.855 C54.293 64.992 55.357 60.007 56.606 55.319 C56.76 54.762 56.913 54.206 57.07 53.633 C57.202 53.126 57.334 52.62 57.469 52.098 C57.644 51.736 57.82 51.373 58 51 C58.66 51 59.32 51 60 51 C60.33 59.58 60.66 68.16 61 77 C40.87 77 20.74 77 0 77 C0 76.34 0 75.68 0 75 C1.143 74.748 2.292 74.52 3.442 74.303 C4.956 73.806 5.976 73.236 7 72 C8.419 67.681 7.997 62.772 7.94 58.265 C7.923 56.405 7.939 54.545 7.95 52.684 C7.963 49.56 7.946 46.437 7.913 43.313 C7.874 39.704 7.887 36.099 7.925 32.49 C7.957 29.388 7.962 26.287 7.943 23.185 C7.932 21.334 7.931 19.485 7.954 17.634 C8.077 6.301 8.077 6.301 6.269 4.117 C4.704 3.013 3.392 2.688 1.499 2.33 C1.004 2.221 0.51 2.112 0 2 C0 1.34 0 0.68 0 0 Z " fill="#000000" transform="translate(642,82)"/>
<path d="M0 0 C19.47 0 38.94 0 59 0 C58.67 7.59 58.34 15.18 58 23 C57.34 23 56.68 23 56 23 C55.438 21.978 55.438 21.978 55 20.551 C54.918 20.291 54.918 20.291 54.5 18.979 C54.418 18.704 54.418 18.704 54 17.312 C53.344 15.205 52.676 13.101 52 11 C51.857 10.523 51.715 10.045 51.568 9.553 C50.848 7.403 50.319 5.9 48.223 4.855 C47.511 4.607 46.79 4.386 46.062 4.188 C45.675 4.071 45.287 3.954 44.888 3.833 C41.657 2.962 38.462 2.722 35.125 2.688 C34.661 2.682 34.197 2.676 33.719 2.671 C30.85 2.732 29.3 3.129 27 5 C26.601 6.455 26.601 6.455 26.568 8.165 C26.548 8.805 26.528 9.446 26.508 10.105 C26.501 10.802 26.494 11.499 26.488 12.195 C26.471 12.91 26.453 13.625 26.434 14.339 C26.386 16.216 26.357 18.094 26.33 19.971 C26.301 21.889 26.254 23.806 26.209 25.723 C26.123 29.482 26.056 33.241 26 37 C27.452 36.707 28.902 36.407 30.352 36.102 C30.761 36.02 31.17 35.938 31.592 35.854 C34.365 35.262 36.355 34.584 38.238 32.352 C39.428 30.241 40.218 27.972 40.875 25.642 C41.191 24.609 41.191 24.609 42 23 C42.99 23 43.98 23 45 23 C45 33.23 45 43.46 45 54 C44.34 54 43.68 54 43 54 C42.469 53.13 42.469 53.13 42.07 51.918 C41.914 51.48 41.758 51.043 41.598 50.592 C41.287 49.668 40.979 48.744 40.676 47.818 C39.727 45.175 38.783 43.21 36.414 41.618 C33.128 40.181 29.511 39.638 26 39 C26.061 43.121 26.138 47.241 26.236 51.361 C26.28 53.275 26.32 55.188 26.346 57.102 C26.373 58.95 26.413 60.798 26.463 62.646 C26.48 63.349 26.491 64.053 26.498 64.757 C26.558 70.958 26.558 70.958 28.365 72.931 C29.995 73.997 30.758 74.384 32.672 74.398 C33.168 74.405 33.664 74.411 34.176 74.417 C34.695 74.403 35.215 74.389 35.75 74.375 C36.017 74.37 36.017 74.37 37.371 74.346 C42.759 74.142 47.337 73.057 51.188 69 C54.416 64.449 56.456 58.13 57.426 52.66 C57.521 52.386 57.521 52.386 58 51 C58.99 51 59.98 51 61 51 C61 59.58 61 68.16 61 77 C40.87 77 20.74 77 0 77 C0 76.34 0 75.68 0 75 C1.773 74.458 3.545 74.169 5.371 73.855 C7 73 7 73 7.373 72.03 C7.978 68.697 8.142 65.479 8.129 62.096 C8.131 61.528 8.133 60.959 8.135 60.374 C8.139 58.51 8.136 56.646 8.133 54.781 C8.133 53.478 8.134 52.174 8.136 50.87 C8.138 48.143 8.135 45.417 8.13 42.69 C8.125 39.549 8.127 36.409 8.132 33.268 C8.137 30.231 8.137 27.195 8.134 24.158 C8.133 22.873 8.134 21.588 8.136 20.302 C8.139 18.503 8.135 16.704 8.129 14.904 C8.131 14.378 8.133 13.853 8.136 13.311 C8.099 6.855 8.099 6.855 7 4 C5.371 3.145 5.371 3.145 3.438 2.812 C1.496 2.457 1.496 2.457 0 2 C0 1.34 0 0.68 0 0 Z " fill="#000000" transform="translate(711,82)"/>
<path d="M0 0 C17.382 -1.723 17.382 -1.723 21.879 1.734 C23.864 3.744 25.42 6.031 26.941 8.404 C28.097 10.146 29.347 11.767 30.656 13.395 C30.888 13.683 31.12 13.972 31.359 14.269 C31.834 14.86 32.309 15.45 32.784 16.041 C33.978 17.535 35.146 19.05 36.316 20.562 C38.96 23.969 41.681 27.309 44.426 30.635 C47.751 34.674 51.02 38.759 54.285 42.848 C54.842 43.545 55.4 44.242 55.957 44.94 C57.305 46.626 58.653 48.313 60 50 C60.07 44.741 60.123 39.482 60.155 34.222 C60.171 31.779 60.192 29.337 60.226 26.894 C60.259 24.534 60.277 22.174 60.285 19.814 C60.29 18.916 60.301 18.019 60.317 17.122 C60.464 8.669 60.464 8.669 57.824 4.845 C56.418 3.403 55.294 3.166 53.312 2.812 C51.426 2.457 51.426 2.457 50 2 C50 1.34 50 0.68 50 0 C57.26 0 64.52 0 72 0 C72 0.66 72 1.32 72 2 C70.723 2.781 70.723 2.781 69.062 3.5 C66.158 4.764 66.158 4.764 65.422 5.868 C64.901 7.265 64.86 8.406 64.842 9.898 C64.832 10.49 64.822 11.081 64.812 11.691 C64.806 12.338 64.801 12.986 64.795 13.653 C64.785 14.343 64.775 15.033 64.765 15.723 C64.738 17.594 64.717 19.466 64.697 21.338 C64.675 23.294 64.647 25.251 64.621 27.207 C64.571 30.912 64.526 34.616 64.483 38.321 C64.433 42.538 64.378 46.756 64.323 50.974 C64.209 59.649 64.102 68.324 64 77 C63.041 77.04 62.081 77.069 61.122 77.092 C60.588 77.109 60.053 77.127 59.503 77.144 C57.377 76.94 56.535 76.091 55.189 74.513 C54.9 74.138 54.61 73.762 54.312 73.375 C53.983 72.977 53.653 72.579 53.313 72.168 C52.187 70.795 51.093 69.4 50 68 C49.382 67.22 48.764 66.44 48.145 65.661 C46.561 63.663 44.984 61.66 43.419 59.648 C39.841 55.047 36.187 50.514 32.5 46 C28.244 40.787 24.029 35.545 19.875 30.25 C19.647 29.959 19.419 29.669 19.183 29.369 C17.244 26.897 15.312 24.422 13.428 21.907 C13.294 21.728 13.294 21.728 12.616 20.823 C12.413 20.551 12.209 20.28 12 20 C11.93 26.467 11.877 32.935 11.845 39.402 C11.829 42.405 11.808 45.408 11.774 48.411 C11.741 51.31 11.723 54.208 11.715 57.106 C11.71 58.212 11.699 59.317 11.683 60.423 C11.661 61.972 11.658 63.52 11.659 65.07 C11.654 65.298 11.654 65.298 11.627 66.454 C11.649 68.73 11.808 70.087 13.421 71.767 C14.873 73.047 16.306 73.584 18.188 74.062 C19.793 74.473 19.793 74.473 21 75 C21 75.66 21 76.32 21 77 C14.07 77 7.14 77 0 77 C0 76.34 0 75.68 0 75 C1.211 74.459 2.425 74.175 3.711 73.855 C5.805 72.466 6.327 70.36 7 68 C7.271 65.925 7.284 63.879 7.275 61.789 C7.277 61.488 7.277 61.488 7.29 59.968 C7.302 58.336 7.304 56.704 7.302 55.072 C7.301 53.705 7.305 52.338 7.31 50.972 C7.321 47.747 7.322 44.523 7.316 41.298 C7.31 37.978 7.322 34.658 7.343 31.338 C7.361 28.478 7.367 25.619 7.364 22.759 C7.362 21.055 7.364 19.351 7.378 17.647 C7.391 15.748 7.384 13.851 7.372 11.953 C7.38 11.392 7.388 10.83 7.395 10.252 C7.338 6.007 7.338 6.007 5.55 4.156 C4.173 3.129 3.474 2.635 1.812 2.438 C1.513 2.365 1.513 2.365 0 2 C0 1.34 0 0.68 0 0 Z " fill="#000000" transform="translate(781,82)"/>
<path d="" fill="#000000" transform="translate(0,0)"/>

<path d="M0 0 C0.452 0.001 0.905 0.002 1.371 0.003 C18.632 0.112 34.905 6.264 47.636 18.178 C58.889 29.627 67.186 46.157 67.812 62.375 C67.833 62.817 67.853 63.258 67.875 63.713 C68.356 75.622 66.915 88.074 58.831 97.522 C56.433 99.926 53.774 101.734 50.812 103.375 C50.415 103.597 50.017 103.818 49.607 104.046 C41.016 108.533 29.082 109.242 19.746 106.645 C15.351 105.134 11.776 102.76 8.157 99.896 C6.829 98.896 5.941 98.389 4.273 98.211 C1.943 98.589 1.943 98.589 0.812 99.375 C0.812 100.035 0.812 100.695 0.812 101.375 C0.082 101.953 0.082 101.953 -0.945 102.41 C-1.324 102.58 -1.703 102.749 -2.094 102.924 C-2.496 103.093 -2.898 103.263 -3.312 103.438 C-3.691 103.611 -4.07 103.784 -4.461 103.963 C-13.481 107.887 -25.79 107.82 -34.961 104.426 C-39.511 102.457 -43.71 99.045 -45.799 94.484 C-47.782 88.826 -48.09 80.907 -45.688 75.34 C-42.052 68.325 -35.608 63.732 -28.188 61.375 C-24.236 60.405 -20.228 59.822 -16.188 59.375 C-16.267 59.108 -16.267 59.108 -16.668 57.754 C-18.955 48.498 -17.327 38.585 -12.62 30.387 C-9.46 25.43 -4.044 21.847 1.681 20.556 C8.457 19.473 15.972 19.46 21.812 23.375 C25.756 26.421 29.086 30.374 29.997 35.392 C30.683 40.876 29.73 45.894 26.553 50.464 C22.861 55.005 16.498 59.066 10.812 60.375 C8.476 60.464 6.15 60.441 3.812 60.375 C8.643 70.071 14.336 78.715 20.812 87.375 C24.163 85.602 26.651 83.96 28.625 80.688 C28.837 80.344 29.048 80.001 29.266 79.648 C31.333 75.979 31.491 72.503 30.812 68.375 C30.729 68.213 30.729 68.213 30.309 67.391 C29.02 64.752 29.409 61.205 29.812 58.375 C31.031 56.037 32.665 54.911 35.016 53.812 C36.942 53.227 38.262 53.182 40.172 53.852 C42.531 55.114 44.534 56.548 45.527 59.094 C47.035 65.869 45.397 71.579 41.812 77.375 C37.633 83.543 32.158 87.614 25.812 91.375 C26.577 92.194 27.349 93.005 28.125 93.812 C28.554 94.265 28.984 94.717 29.426 95.184 C33.207 98.432 38.806 97.77 43.519 97.511 C46.414 97.206 48.528 96.116 50.812 94.375 C51.251 94.046 51.689 93.718 52.141 93.379 C56.66 89.445 59.562 83.562 60.198 77.619 C60.397 74.64 60.373 71.671 60.312 68.688 C60.307 68.161 60.302 67.635 60.297 67.093 C60.16 55.307 58.133 45.162 51.766 35.047 C50.812 33.375 50.812 33.375 50.812 31.375 C50.153 31.375 49.493 31.375 48.812 31.375 C47.909 30.227 47.114 29.091 46.312 27.875 C42.659 22.686 37.939 19.038 32.812 15.375 C32.507 15.153 32.202 14.932 31.888 14.703 C29.967 13.345 27.958 12.317 25.812 11.375 C25.429 11.195 25.046 11.014 24.652 10.828 C16.711 7.244 8.772 6.952 0.188 6.875 C-0.341 6.865 -0.87 6.854 -1.414 6.844 C-9.381 6.721 -15.926 8.082 -23.188 11.375 C-23.57 11.544 -23.952 11.714 -24.346 11.888 C-24.524 11.971 -24.524 11.971 -25.428 12.393 C-25.742 12.538 -26.055 12.684 -26.378 12.834 C-27.991 13.912 -28.506 15.629 -29.188 17.375 C-29.373 17.735 -29.559 18.094 -29.75 18.465 C-31.6 22.281 -31.756 26.239 -31.188 30.375 C-30.512 31.836 -30.512 31.836 -29.688 33.188 C-27.299 37.356 -27.162 42.731 -28.188 47.375 C-29.465 49.607 -30.776 50.535 -33.188 51.375 C-35.954 52.048 -38.078 51.972 -40.609 50.609 C-43.288 48.624 -45.207 46.596 -46.188 43.375 C-46.525 40.809 -46.579 38.27 -46.562 35.688 C-46.561 35.33 -46.56 34.973 -46.559 34.605 C-46.502 28.458 -45.752 23.501 -42.188 18.375 C-41.94 18.003 -41.693 17.632 -41.438 17.249 C-37.701 11.838 -33.133 8.383 -27.312 5.438 C-26.76 5.155 -26.208 4.873 -25.639 4.582 C-17.542 0.775 -8.846 -0.042 0 0 Z M0.121 30.555 C-3.465 39.031 -1.251 49.133 1.812 57.375 C6.827 55.945 10.013 52.995 12.934 48.742 C14.355 45.722 14.184 42.302 14.183 39.03 C14.187 37.876 14.224 36.727 14.262 35.574 C14.356 29.42 14.356 29.42 11.945 26.875 C10.454 25.604 9.254 25.117 7.312 24.875 C3.699 25.209 1.864 27.582 0.121 30.555 Z M-25.675 72.131 C-27.896 77.833 -28.433 84.015 -25.953 89.701 C-24.033 93.608 -21.947 96.265 -17.828 97.922 C-12.655 99.351 -7.391 98.898 -2.562 96.625 C-2.208 96.468 -1.853 96.311 -1.488 96.15 C-0.523 95.641 -0.523 95.641 0.812 94.375 C0.7 90.502 -1.964 87.288 -4 84.125 C-6.324 80.448 -8.637 76.782 -10.562 72.875 C-10.64 72.719 -10.64 72.719 -11.031 71.929 C-11.9 70.115 -12.562 68.284 -13.188 66.375 C-13.641 65.227 -13.641 65.227 -14.188 64.375 C-19.095 62.622 -23.791 67.996 -25.675 72.131 Z " fill="#315f8c" transform="translate(492.1875,58.625)"/>
<path fill="#000000" transform="translate(61,218) scale(0.02,-0.02)" d="M213 0 27 700H155L285 137L437 700H570L718 136L850 700H979L788 0H646L502 530L354 0Z"/><path fill="#000000" transform="translate(91.82216216216216,218) scale(0.02,-0.02)" d="M71 0V700H523V603H191V402H493V307H191V97H523V0Z"/><path fill="#000000" transform="translate(114.12432432432432,218) scale(0.02,-0.02)" d="M71 0V700H346Q419 700 468.5 677.0Q518 654 543.5 613.5Q569 573 569 520Q569 467 545.5 431.0Q522 395 484.5 376.0Q447 357 403 353L419 364Q466 363 503.5 339.0Q541 315 563.0 276.5Q585 238 585 191Q585 136 558.0 92.5Q531 49 480.0 24.5Q429 0 355 0ZM191 98H337Q397 98 430.0 126.0Q463 154 463 204Q463 254 429.0 283.5Q395 313 335 313H191ZM191 404H329Q386 404 416.0 430.5Q446 457 446 504Q446 550 416.0 576.5Q386 603 327 603H191Z"/><path fill="#000000" transform="translate(137.42648648648648,218) scale(0.02,-0.02)" d="M306 -12Q230 -12 171.0 15.0Q112 42 79.0 92.0Q46 142 45 211H171Q172 176 188.5 148.5Q205 121 234.5 105.0Q264 89 306 89Q342 89 368.5 100.5Q395 112 409.5 133.5Q424 155 424 184Q424 217 408.5 238.5Q393 260 366.5 275.0Q340 290 304.5 301.5Q269 313 230 326Q147 353 105.0 397.0Q63 441 63 514Q63 575 92.0 619.0Q121 663 173.5 687.5Q226 712 295 712Q365 712 417.5 687.0Q470 662 500.0 617.5Q530 573 532 511H404Q403 537 390.0 559.5Q377 582 352.5 596.5Q328 611 293 611Q263 612 239.5 601.5Q216 591 202.5 571.5Q189 552 189 523Q189 495 201.5 476.5Q214 458 238.0 445.5Q262 433 294.0 422.0Q326 411 364 398Q416 381 458.5 356.5Q501 332 526.0 293.0Q551 254 551 192Q551 138 523.0 91.5Q495 45 441.0 16.5Q387 -12 306 -12Z"/><path fill="#000000" transform="translate(160.10864864864865,218) scale(0.02,-0.02)" d="M71 0V700H191V0Z"/><path fill="#000000" transform="translate(176.0908108108108,218) scale(0.02,-0.02)" d="M234 0V603H28V700H560V603H354V0Z"/><path fill="#000000" transform="translate(198.57297297297296,218) scale(0.02,-0.02)" d="M71 0V700H523V603H191V402H493V307H191V97H523V0Z"/><path fill="#000000" transform="translate(220.8751351351351,218) scale(0.02,-0.02)" d="M306 -12Q230 -12 171.0 15.0Q112 42 79.0 92.0Q46 142 45 211H171Q172 176 188.5 148.5Q205 121 234.5 105.0Q264 89 306 89Q342 89 368.5 100.5Q395 112 409.5 133.5Q424 155 424 184Q424 217 408.5 238.5Q393 260 366.5 275.0Q340 290 304.5 301.5Q269 313 230 326Q147 353 105.0 397.0Q63 441 63 514Q63 575 92.0 619.0Q121 663 173.5 687.5Q226 712 295 712Q365 712 417.5 687.0Q470 662 500.0 617.5Q530 573 532 511H404Q403 537 390.0 559.5Q377 582 352.5 596.5Q328 611 293 611Q263 612 239.5 601.5Q216 591 202.5 571.5Q189 552 189 523Q189 495 201.5 476.5Q214 458 238.0 445.5Q262 433 294.0 422.0Q326 411 364 398Q416 381 458.5 356.5Q501 332 526.0 293.0Q551 254 551 192Q551 138 523.0 91.5Q495 45 441.0 16.5Q387 -12 306 -12Z"/><path fill="#000000" transform="translate(243.55729729729728,218) scale(0.02,-0.02)" d=""/><path fill="#000000" transform="translate(259.17945945945945,218) scale(0.02,-0.02)" d=""/><path fill="#000000" transform="translate(274.8016216216216,218) scale(0.02,-0.02)" d="M189 201Q153 201 122.5 218.5Q92 236 74.5 266.0Q57 296 57 333Q57 371 74.5 401.0Q92 431 122.0 448.5Q152 466 189 466Q226 466 256.5 448.5Q287 431 304.5 401.0Q322 371 322 333Q322 296 304.5 266.0Q287 236 256.5 218.5Q226 201 189 201Z"/><path fill="#000000" transform="translate(293.1237837837838,218) scale(0.02,-0.02)" d=""/><path fill="#000000" transform="translate(308.74594594594595,218) scale(0.02,-0.02)" d=""/><path fill="#000000" transform="translate(324.3681081081081,218) scale(0.02,-0.02)" d="M71 0V700H346Q419 700 468.5 677.0Q518 654 543.5 613.5Q569 573 569 520Q569 467 545.5 431.0Q522 395 484.5 376.0Q447 357 403 353L419 364Q466 363 503.5 339.0Q541 315 563.0 276.5Q585 238 585 191Q585 136 558.0 92.5Q531 49 480.0 24.5Q429 0 355 0ZM191 98H337Q397 98 430.0 126.0Q463 154 463 204Q463 254 429.0 283.5Q395 313 335 313H191ZM191 404H329Q386 404 416.0 430.5Q446 457 446 504Q446 550 416.0 576.5Q386 603 327 603H191Z"/><path fill="#000000" transform="translate(347.6702702702703,218) scale(0.02,-0.02)" d="M71 0V700H322Q406 700 460.0 671.5Q514 643 540.5 595.5Q567 548 567 488Q567 432 541.0 384.0Q515 336 460.5 307.0Q406 278 320 278H191V0ZM436 0 289 309H420L574 0ZM191 367H314Q381 367 412.5 399.5Q444 432 444 485Q444 537 413.0 568.5Q382 600 314 600H191Z"/><path fill="#000000" transform="translate(370.81243243243244,218) scale(0.02,-0.02)" d="M25 0 281 700H415L671 0H544L347 560L150 0ZM139 165 171 260H516L548 165Z"/><path fill="#000000" transform="translate(395.4545945945946,218) scale(0.02,-0.02)" d="M71 0V700H191L528 194V700H648V0H528L191 505V0Z"/><path fill="#000000" transform="translate(420.57675675675677,218) scale(0.02,-0.02)" d="M71 0V700H297Q419 700 498.5 657.0Q578 614 616.5 535.5Q655 457 655 349Q655 243 616.5 164.5Q578 86 498.5 43.0Q419 0 297 0ZM191 102H291Q382 102 434.5 131.5Q487 161 509.5 216.5Q532 272 532 349Q532 427 509.5 482.5Q487 538 434.5 568.5Q382 599 291 599H191Z"/><path fill="#000000" transform="translate(445.3589189189189,218) scale(0.02,-0.02)" d="M71 0V700H191V0Z"/><path fill="#000000" transform="translate(461.3410810810811,218) scale(0.02,-0.02)" d="M71 0V700H191L528 194V700H648V0H528L191 505V0Z"/><path fill="#000000" transform="translate(486.46324324324326,218) scale(0.02,-0.02)" d="M376 -12Q277 -12 203.0 33.0Q129 78 88.0 158.5Q47 239 47 347Q47 454 89.0 536.5Q131 619 209.0 665.5Q287 712 395 712Q517 712 598.0 653.5Q679 595 702 491H567Q552 543 508.0 572.0Q464 601 395 601Q324 601 273.0 570.5Q222 540 195.5 482.5Q169 425 169 346Q169 267 195.5 210.0Q222 153 271.5 123.5Q321 94 386 94Q484 94 534.5 149.0Q585 204 594 292H413V383H715V0H604L595 96Q572 62 541.5 37.5Q511 13 470.5 0.5Q430 -12 376 -12Z"/><path fill="#000000" transform="translate(512.6454054054054,218) scale(0.02,-0.02)" d=""/><path fill="#000000" transform="translate(528.2675675675675,218) scale(0.02,-0.02)" d=""/><path fill="#000000" transform="translate(543.8897297297297,218) scale(0.02,-0.02)" d="M189 201Q153 201 122.5 218.5Q92 236 74.5 266.0Q57 296 57 333Q57 371 74.5 401.0Q92 431 122.0 448.5Q152 466 189 466Q226 466 256.5 448.5Q287 431 304.5 401.0Q322 371 322 333Q322 296 304.5 266.0Q287 236 256.5 218.5Q226 201 189 201Z"/><path fill="#000000" transform="translate(562.2118918918918,218) scale(0.02,-0.02)" d=""/><path fill="#000000" transform="translate(577.8340540540539,218) scale(0.02,-0.02)" d=""/><path fill="#000000" transform="translate(593.456216216216,218) scale(0.02,-0.02)" d="M306 -12Q230 -12 171.0 15.0Q112 42 79.0 92.0Q46 142 45 211H171Q172 176 188.5 148.5Q205 121 234.5 105.0Q264 89 306 89Q342 89 368.5 100.5Q395 112 409.5 133.5Q424 155 424 184Q424 217 408.5 238.5Q393 260 366.5 275.0Q340 290 304.5 301.5Q269 313 230 326Q147 353 105.0 397.0Q63 441 63 514Q63 575 92.0 619.0Q121 663 173.5 687.5Q226 712 295 712Q365 712 417.5 687.0Q470 662 500.0 617.5Q530 573 532 511H404Q403 537 390.0 559.5Q377 582 352.5 596.5Q328 611 293 611Q263 612 239.5 601.5Q216 591 202.5 571.5Q189 552 189 523Q189 495 201.5 476.5Q214 458 238.0 445.5Q262 433 294.0 422.0Q326 411 364 398Q416 381 458.5 356.5Q501 332 526.0 293.0Q551 254 551 192Q551 138 523.0 91.5Q495 45 441.0 16.5Q387 -12 306 -12Z"/><path fill="#000000" transform="translate(616.1383783783782,218) scale(0.02,-0.02)" d="M390 -12Q288 -12 210.5 33.5Q133 79 90.0 160.5Q47 242 47 350Q47 457 90.0 538.5Q133 620 210.5 666.0Q288 712 390 712Q494 712 571.0 666.0Q648 620 691.5 538.5Q735 457 735 350Q735 242 691.5 160.5Q648 79 571.0 33.5Q494 -12 390 -12ZM390 96Q458 96 508.0 126.5Q558 157 585.0 214.0Q612 271 612 350Q612 429 585.0 486.0Q558 543 508.0 573.5Q458 604 390 604Q324 604 273.5 573.5Q223 543 196.0 486.0Q169 429 169 350Q169 271 196.0 214.0Q223 157 273.5 126.5Q324 96 390 96Z"/><path fill="#000000" transform="translate(642.5005405405403,218) scale(0.02,-0.02)" d="M382 -12Q278 -12 203.0 33.5Q128 79 87.5 160.5Q47 242 47 349Q47 457 87.5 538.5Q128 620 203.0 666.0Q278 712 382 712Q507 712 586.5 650.5Q666 589 686 477H554Q540 536 496.5 570.0Q453 604 381 604Q315 604 267.5 573.5Q220 543 194.5 485.5Q169 428 169 349Q169 270 194.5 213.5Q220 157 267.5 126.5Q315 96 381 96Q453 96 496.5 127.5Q540 159 554 215H686Q666 109 586.5 48.5Q507 -12 382 -12Z"/><path fill="#000000" transform="translate(667.8627027027024,218) scale(0.02,-0.02)" d="M71 0V700H191V0Z"/><path fill="#000000" transform="translate(683.8448648648646,218) scale(0.02,-0.02)" d="M25 0 281 700H415L671 0H544L347 560L150 0ZM139 165 171 260H516L548 165Z"/><path fill="#000000" transform="translate(708.4870270270268,218) scale(0.02,-0.02)" d="M71 0V700H191V94H504V0Z"/><path fill="#000000" transform="translate(730.2291891891889,218) scale(0.02,-0.02)" d=""/><path fill="#000000" transform="translate(745.851351351351,218) scale(0.02,-0.02)" d="M71 0V700H214L437 248L660 700H803V0H683V494L483 98H389L191 493V0Z"/><path fill="#000000" transform="translate(774.0335135135132,218) scale(0.02,-0.02)" d="M71 0V700H523V603H191V402H493V307H191V97H523V0Z"/><path fill="#000000" transform="translate(796.3356756756754,218) scale(0.02,-0.02)" d="M71 0V700H297Q419 700 498.5 657.0Q578 614 616.5 535.5Q655 457 655 349Q655 243 616.5 164.5Q578 86 498.5 43.0Q419 0 297 0ZM191 102H291Q382 102 434.5 131.5Q487 161 509.5 216.5Q532 272 532 349Q532 427 509.5 482.5Q487 538 434.5 568.5Q382 599 291 599H191Z"/><path fill="#000000" transform="translate(821.1178378378376,218) scale(0.02,-0.02)" d="M71 0V700H191V0Z"/><path fill="#000000" transform="translate(837.0999999999997,218) scale(0.02,-0.02)" d="M25 0 281 700H415L671 0H544L347 560L150 0ZM139 165 171 260H516L548 165Z"/></svg>